<?xml version="1.0" encoding="UTF-8"?>
<svg width="1024" height="1024" viewBox="0 0 1024 1024" fill="none" xmlns="http://www.w3.org/2000/svg">
  <rect width="1024" height="1024" fill="#FF4D6A"/>
  <path d="M512 256C370.752 256 256 370.752 256 512C256 653.248 370.752 768 512 768C653.248 768 768 653.248 768 512C768 370.752 653.248 256 512 256ZM512 704C406.112 704 320 617.888 320 512C320 406.112 406.112 320 512 320C617.888 320 704 406.112 704 512C704 617.888 617.888 704 512 704Z" fill="white"/>
  <path d="M512 384C459.072 384 416 427.072 416 480C416 532.928 459.072 576 512 576C564.928 576 608 532.928 608 480C608 427.072 564.928 384 512 384Z" fill="white"/>
</svg> 